{"title":"Thomas de Stoomlocomotief - Het straalvliegtuig (2010)(RETAIL) H","uid":6003030,"size":2352636260,"categoryP":"video","categoryS":"movies_dvdr","magnet":"?xt=urn:btih:6723d7cbf976fae8ee6b2e57b6ab8a74b5bf7e45&amp;dn=Thomas+de+Stoomlocomotief+-+Het+straalvliegtuig+%282010%29%28RETAIL%29+H&amp;tr=udp%3A%2F%2Ftracker.openbittorrent.com%3A80&amp;tr=udp%3A%2F%2Fopen.demonii.com%3A1337&amp;tr=udp%3A%2F%2Ftracker.coppersurfer.tk%3A6969&amp;tr=udp%3A%2F%2Fexodus.desync.com%3A6969","seeders":0,"leechers":1,"uploader":null,"files":-1,"time":1291235229,"description":"Vorige torrent is corrupt, deze is geheel gecontroleerd en goed!\n\nThomas de Stoomlocomotief - Het straalvliegtuig\n\nCategorie: Beeld\nFormaat: DVD5\nBron: Retail\nOndertitels: Geen\nGenre : Animatie, kinderfilm.\nAudio: Nederlands.\n\nHet is zomer en op het eiland Sodor hebben ze een picknick georganiseerd. Thomas is naar het vliegveld gestuurd om een paar kinderen op te halen en daar ontmoet hij Jeremy ? straalvliegtuig, die op het punt van vertrekken staat. Door slecht weer komt Jeremy weer terug en hij waarschuwt Thomas. Is de picknick geruÃƒÂ¯neerd?\n\nVideo en Audio informatie:\n******************************\nVideo\nID                               : 224 (0xE0)\nFormat                           : MPEG Video\nFormat version                   : Version 2\nFormat profile                   : Main@Main\nFormat settings, BVOP            : Yes\nFormat settings, Matrix          : Default\nFormat settings, GOP             : M=2, N=14\nDuration                         : 28mn 40s\nBit rate mode                    : Variable\nBit rate                         : 4 669 Kbps\nNominal bit rate                 : 8 000 Kbps\nWidth                            : 720 pixels\nHeight                           : 576 pixels\nDisplay aspect ratio             : 4:3\nFrame rate                       : 25.000 fps\nStandard                         : PAL\nColor space                      : YUV\nChroma subsampling               : 4:2:0\nBit depth                        : 8 bits\nScan type                        : Interlaced\nScan order                       : Top Field First\nBits/(Pixel*Frame)               : 0.450\nStream size                      : 958 MiB (94%)\n\nAudio\nID                               : 128 (0x80)\nFormat                           : AC-3\nFormat/Info                      : Audio Coding 3\nMode extension                   : CM (complete main)\nDuration                         : 28mn 40s\nBit rate mode                    : Constant\nBit rate                         : 224 Kbps\nChannel(s)                       : 2 channels\nChannel positions                : Front: L R\nSampling rate                    : 48.0 KHz\nBit depth                        : 16 bits\nVideo delay                      : -40ms\nStream size                      : 45.9 MiB (4%)\n\n******************************\n\nBlack-Sam TBS","torrent":{"xt":"urn:btih:6723d7cbf976fae8ee6b2e57b6ab8a74b5bf7e45","amp;dn":"Thomas+de+Stoomlocomotief+-+Het+straalvliegtuig+%282010%29%28RETAIL%29+H","amp;tr":["udp%3A%2F%2Ftracker.openbittorrent.com%3A80","udp%3A%2F%2Fopen.demonii.com%3A1337","udp%3A%2F%2Ftracker.coppersurfer.tk%3A6969","udp%3A%2F%2Fexodus.desync.com%3A6969"],"infoHash":"6723d7cbf976fae8ee6b2e57b6ab8a74b5bf7e45","infoHashBuffer":{"type":"Buffer","data":[103,35,215,203,249,118,250,232,238,107,46,87,182,171,138,116,181,191,126,69]},"announce":[],"urlList":[]}}